<svg xmlns="http://www.w3.org/2000/svg" viewBox="0 0 64 64" width="200px" height="200px"
    baseProfile="basic">
    <script xmlns="" id="dashlane_webauthn" name="forward_webauthn_ready" />
    <path fill="#dbb2ba" d="M11,32c0,0-5-18,7-20C19,5,28,1,36,1c7,0,9,7,9,10c0,0,12,2,8,20L11,32z" />
    <path fill="#8d6c9f"
        d="M11,33c-0.448,0-0.843-0.299-0.964-0.732c-0.121-0.436-2.919-10.744,1.029-16.939 c1.387-2.177,3.428-3.58,6.071-4.178C18.7,3.902,27.876,0,36,0c7.038,0,9.642,6.431,9.965,10.212 c1.379,0.417,4.247,1.616,6.359,4.748c2.628,3.895,3.184,9.364,1.652,16.257c-0.101,0.449-0.493,0.772-0.953,0.783l-42,1 C11.016,33,11.008,33,11,33z M36,2c-7.649,0-16.104,3.793-17.01,10.142c-0.062,0.432-0.396,0.773-0.826,0.845 c-2.434,0.406-4.204,1.522-5.41,3.414c-2.908,4.559-1.517,12.175-0.973,14.581l40.404-0.962c1.206-5.971,0.696-10.658-1.519-13.941 c-2.345-3.475-5.797-4.086-5.831-4.092C44.354,11.907,44,11.49,44,11C44,9.099,42.643,2,36,2z" />
    <path fill="#faefde"
        d="M52,30.149c-0.549,0-1.284,0.173-2.02,0.471c0.46-10.027-4.131-16.435-13.649-16.435h-8.47 c-9.533,0-14.124,6.426-13.648,16.48l0.006,0.038c-0.802-0.349-1.62-0.553-2.219-0.553c-1.657,0-3,1.55-3,3.463 C9,39.383,11,44.149,14,44h2.419l0.464,2.803C18,57,26.837,62,29.146,62h5.899C37.355,62,46,56,47.309,46.803L47.773,44H50 c3,0.149,5-4.617,5-10.389C55,31.699,53.657,30.149,52,30.149z" />
    <path fill="#efd8be"
        d="M39.193,14H24.807c-1.723,0-3.293,0.642-4.491,1.697C21.013,17.619,22.837,19,25,19h14 c2.163,0,3.987-1.381,4.684-3.302C42.486,14.642,40.916,14,39.193,14z" />
    <path fill="#8d6c9f"
        d="M35.045,63h-5.898c-2.954,0-12.102-5.531-13.258-16.088L15.571,45H14 c-1.028,0.051-2.047-0.358-2.918-1.188C9.152,41.976,8,38.162,8,33.612c0-2.461,1.794-4.463,4-4.463 c0.352,0,0.754,0.053,1.18,0.153c-0.002-5.148,1.383-9.31,4.038-12.093c2.548-2.671,6.128-4.025,10.643-4.025h8.471 c4.51,0,8.089,1.352,10.636,4.019c2.651,2.776,4.038,6.925,4.044,12.057c0.354-0.072,0.688-0.11,0.989-0.11 c2.206,0,4,2.002,4,4.463c0,4.551-1.152,8.364-3.082,10.201c-0.871,0.828-1.889,1.241-2.968,1.187L48.621,45l-0.326,1.966 C46.911,56.693,37.865,63,35.045,63z M16.419,43c0.489,0,0.906,0.354,0.986,0.837l0.464,2.803C18.922,56.232,27.294,61,29.146,61 h5.898c1.786,0,10.048-5.723,11.273-14.338l0.468-2.825C46.866,43.355,47.283,43,47.772,43H50c0.567,0.03,1.06-0.181,1.539-0.636 C53.034,40.941,54,37.505,54,33.612c0-1.358-0.897-2.463-2-2.463c-0.415,0-1.03,0.148-1.646,0.397 c-0.315,0.128-0.674,0.086-0.953-0.11c-0.277-0.197-0.437-0.521-0.421-0.862c0.239-5.223-0.957-9.369-3.46-11.989 c-2.155-2.257-5.247-3.4-9.189-3.4H27.86c-3.946,0-7.04,1.146-9.195,3.405c-2.505,2.627-3.699,6.782-3.454,12.018 c0.02,0.33-0.12,0.664-0.383,0.867c-0.289,0.223-0.672,0.292-1.008,0.145c-0.667-0.29-1.364-0.47-1.82-0.47 c-1.103,0-2,1.104-2,2.463c0,3.894,0.966,7.329,2.461,8.753c0.479,0.454,0.972,0.676,1.489,0.637L16.419,43z" />
    <path fill="#8d6c9f"
        d="M34,33h-4c-0.553,0-1-0.447-1-1s0.447-1,1-1h4c0.553,0,1,0.447,1,1S34.553,33,34,33z" />
    <path fill="#8d6c9f"
        d="M18.001,33c-0.08,0-0.162-0.01-0.243-0.03l-4-1c-0.536-0.134-0.862-0.677-0.728-1.212 c0.134-0.537,0.675-0.863,1.212-0.728l4,1c0.536,0.134,0.862,0.677,0.728,1.212C18.856,32.698,18.449,33,18.001,33z" />
    <path fill="#8d6c9f"
        d="M44.999,33c-0.448,0-0.855-0.303-0.969-0.758c-0.135-0.535,0.191-1.078,0.728-1.212l4-1 c0.532-0.135,1.078,0.19,1.212,0.728c0.135,0.535-0.191,1.078-0.728,1.212l-4,1C45.161,32.991,45.079,33,44.999,33z" />
    <path fill="#8d6c9f"
        d="M24.5,38c-3.584,0-6.5-2.243-6.5-5s2.916-5,6.5-5s6.5,2.243,6.5,5S28.084,38,24.5,38z M24.5,30 c-2.439,0-4.5,1.374-4.5,3s2.061,3,4.5,3s4.5-1.374,4.5-3S26.939,30,24.5,30z" />
    <path fill="#8d6c9f"
        d="M39.5,38c-3.584,0-6.5-2.243-6.5-5s2.916-5,6.5-5s6.5,2.243,6.5,5S43.084,38,39.5,38z M39.5,30 c-2.439,0-4.5,1.374-4.5,3s2.061,3,4.5,3s4.5-1.374,4.5-3S41.939,30,39.5,30z" />
    <circle cx="25" cy="32" r="2" fill="#8d6c9f" />
    <circle cx="39" cy="32" r="2" fill="#8d6c9f" />
    <path fill="#dbb2ba"
        d="M53.534,55.134c-0.961-3.845-3.736-7.981-7.435-9.404l-4.99-1.919 C39.715,43.275,38.234,43,36.741,43h-2.797c-0.631,0.617-1.492,1-2.444,1s-1.813-0.383-2.444-1h-1.797 c-1.493,0-2.973,0.275-4.367,0.811l-4.99,1.919c-3.699,1.423-6.474,5.559-7.435,9.404L10,57l18.31-4.161 c2.158-0.491,3.69-2.409,3.69-4.622c0,2.213,1.531,4.132,3.69,4.622L54,57L53.534,55.134z" />
    <path fill="#8d6c9f"
        d="M54,58c-0.074,0-0.148-0.008-0.222-0.024l-18.311-4.162c-1.46-0.332-2.675-1.188-3.468-2.346 c-0.793,1.157-2.008,2.014-3.468,2.346l-18.311,4.162c-0.334,0.075-0.693-0.028-0.937-0.276s-0.34-0.604-0.255-0.941l0.467-1.866 c0.963-3.855,3.824-8.472,8.045-10.096l4.99-1.919C24.046,42.295,25.636,42,27.259,42h1.797c0.261,0,0.512,0.103,0.699,0.284 c0.943,0.924,2.547,0.924,3.49,0C33.433,42.103,33.684,42,33.944,42h2.797c1.623,0,3.213,0.295,4.727,0.877l4.99,1.919 c4.221,1.624,7.082,6.24,8.045,10.096l0.467,1.866c0.085,0.337-0.012,0.693-0.255,0.941C54.524,57.894,54.266,58,54,58z M32,47.216 c0.553,0,1,0.447,1,1c0,1.758,1.197,3.258,2.911,3.646l16.724,3.802l-0.071-0.288l0,0c-0.812-3.244-3.292-7.354-6.824-8.713 l-4.99-1.919C39.467,44.25,38.118,44,36.741,44h-2.418c-1.6,1.295-4.047,1.295-5.646,0h-1.418c-1.377,0-2.726,0.25-4.008,0.744 l-4.99,1.919c-3.532,1.358-6.013,5.469-6.824,8.713l-0.071,0.288l16.724-3.802C29.803,51.474,31,49.974,31,48.216 C31,47.663,31.447,47.216,32,47.216z" />
    <path fill="#8d6c9f"
        d="M14.999,38c-0.498,0-0.929-0.371-0.991-0.877l-0.781-6.299c-0.068-0.548,0.321-1.048,0.869-1.115 c0.55-0.078,1.048,0.321,1.115,0.869l0.781,6.299c0.068,0.548-0.321,1.048-0.869,1.115C15.081,37.998,15.04,38,14.999,38z" />
    <path fill="#8d6c9f"
        d="M49.001,38c-0.05,0-0.102-0.004-0.152-0.012c-0.546-0.084-0.921-0.594-0.837-1.14l0.979-6.381 c0.084-0.546,0.595-0.921,1.14-0.837c0.546,0.084,0.921,0.594,0.837,1.14l-0.979,6.381C49.912,37.647,49.486,38,49.001,38z" />
    <path fill="#8d6c9f"
        d="M35.999,15c-0.209,0-0.419-0.065-0.599-0.2c-0.441-0.331-0.531-0.956-0.202-1.397 c0.114-0.154,2.628-3.645,0.873-8.031c-0.205-0.513,0.045-1.095,0.558-1.3c0.508-0.205,1.095,0.044,1.3,0.558 c2.184,5.459-0.992,9.789-1.129,9.971C36.604,14.863,36.304,15,35.999,15z" />
    <path fill="#8d6c9f"
        d="M44,16c-0.256,0-0.512-0.098-0.707-0.293c-0.383-0.383-0.391-1-0.021-1.392 C43.317,14.259,44,13.374,44,11c0-0.553,0.447-1,1-1s1,0.447,1,1c0,3.25-1.077,4.491-1.293,4.707C44.512,15.903,44.256,16,44,16z" />
    <path fill="#8d6c9f"
        d="M25,54c-0.553,0-1-0.447-1-1v-2c0-0.553,0.447-1,1-1s1,0.447,1,1v2C26,53.553,25.553,54,25,54z" />
    <path fill="#8d6c9f"
        d="M16,56c-0.104,0-0.211-0.017-0.316-0.052c-0.523-0.174-0.807-0.74-0.632-1.265l1-3 c0.175-0.523,0.736-0.808,1.265-0.632c0.523,0.174,0.807,0.74,0.632,1.265l-1,3C16.809,55.736,16.419,56,16,56z" />
    <path fill="#8d6c9f"
        d="M39,54c-0.419,0-0.809-0.265-0.948-0.684l-1-3c-0.175-0.524,0.108-1.091,0.632-1.265 c0.529-0.176,1.09,0.108,1.265,0.632l1,3c0.175,0.524-0.108,1.091-0.632,1.265C39.211,53.984,39.104,54,39,54z" />
    <path fill="#8d6c9f"
        d="M48,56c-0.419,0-0.809-0.265-0.948-0.684l-1-3c-0.175-0.524,0.108-1.091,0.632-1.265 c0.527-0.176,1.091,0.108,1.265,0.632l1,3c0.175,0.524-0.108,1.091-0.632,1.265C48.211,55.984,48.104,56,48,56z" />
    <path fill="#8d6c9f"
        d="M29,15c-0.256,0-0.512-0.098-0.707-0.293c-0.39-0.39-0.391-1.021-0.002-1.412 C28.336,13.248,30,11.504,30,9c0-0.553,0.447-1,1-1s1,0.447,1,1c0,3.375-2.199,5.613-2.293,5.707C29.512,14.903,29.256,15,29,15z" />
    <g>
        <path fill="#8d6c9f"
            d="M25,20c-0.552,0-0.999-0.447-1-0.999c-0.001-0.553,0.446-1,0.999-1.001l4.063-0.004h0.001 c0.552,0,0.999,0.447,1,0.999c0.001,0.553-0.446,1-0.999,1.001L25,20L25,20z" />
    </g>
    <g>
        <path fill="#8d6c9f"
            d="M33,20c-0.552,0-1-0.447-1-0.999C32,18.449,32.447,18,32.999,18l7-0.004c0.001,0,0.001,0,0.001,0 c0.552,0,1,0.447,1,0.999c0,0.553-0.447,1.001-0.999,1.001L33,20C33,20,33,20,33,20z" />
    </g>
</svg>